# xmcd CD database file
#
# Track frame offsets:
#	150
#	12991
#	27236
#	40842
#	54377
#	68393
#	81504
#	97002
#	115850
#	130896
#	145857
#	153917
#	165939
#	182417
#	195999
#	208293
#	220616
#	235269
#	249246
#	261533
#	271950
#	284633
#
# Disc length: 3944 seconds
#
# Revision: 0
# Processed by: cddbd v1.5.2PL0 Copyright (c) Steve Scherf et al.
# Submitted via: CDex 1.51
#
DISCID=340f6616
DTITLE=Mel Torme - You'Re Driving Me Crazy 
DYEAR=2009
DGENRE=Jazz
TTITLE0=1. It happened in Monterey  
TTITLE1=2. You're driving me crazy  
TTITLE2=3. I got the sun in the morning  
TTITLE3=4. What is this thing called love  
TTITLE4=5. Guilty  
TTITLE5=6. A foggy day  
TTITLE6=7. O cover the waterfront  
TTITLE7=8. The blues  
TTITLE8=9. When it's sleepy time down south  
TTITLE9=10. Gone with the wind  
TTITLE10=11. Love me or leave me  
TTITLE11=12. A cottage for sale  
TTITLE12=13. Blues in the night  
TTITLE13=14. Little white lies  
TTITLE14=15. Night and day  
TTITLE15=16. But beautiful  
TTITLE16=17. Careless hands  
TTITLE17=18. You're getting to be a habit with me  
TTITLE18=19. Sonny boy  
TTITLE19=20. O, you beautiful doll  
TTITLE20=21. The old master painter
TTITLE21=22. You're a heavenly thing
EXTD=YEAR: 2009
EXTT0=
EXTT1=
EXTT2=
EXTT3=
EXTT4=
EXTT5=
EXTT6=
EXTT7=
EXTT8=
EXTT9=
EXTT10=
EXTT11=
EXTT12=
EXTT13=
EXTT14=
EXTT15=
EXTT16=
EXTT17=
EXTT18=
EXTT19=
EXTT20=
EXTT21=
PLAYORDER=
